<?xml version="1.0" encoding="utf-8"?>
<!-- Generator: Adobe Illustrator 22.0.0, SVG Export Plug-In . SVG Version: 6.00 Build 0)  -->
<svg version="1.1" id="Layer_1" xmlns="http://www.w3.org/2000/svg" xmlns:xlink="http://www.w3.org/1999/xlink" x="0px" y="0px"
	 viewBox="0 0 243.1 248.1" style="enable-background:new 0 0 243.1 248.1;" xml:space="preserve">
<style type="text/css">
	.st0{fill:#D51726;}
	.st1{fill:#C71618;}
	.st2{fill:#FFFFFF;}
	.st3{fill:#F7F4F5;}
	.st4{fill:#D51727;}
	.st5{fill:#E10A17;}
</style>
<path class="st0" d="M121.9,227.1c16.2,1.5,74.9,9.3,121.2,21v-74.2H0v74.3C46.4,236.4,105.6,228.6,121.9,227.1z"/>
<path class="st1" d="M0,174.3c46.4,29.5,105.7,49,121.9,52.8c16.2-3.8,74.8-23.3,121.2-52.8v-0.4H0V174.3z"/>
<g>
	<path class="st2" d="M198.2,204.6c0-3.4-2-5.8-5.8-6.8l-2.8-0.8c-1.9-0.5-2.5-1.1-2.5-2.3c0-1.5,1.3-2.6,3.2-2.6
		c1.7,0,3.3,0.5,5.3,1.7l2.2-3.3c-2-1.4-4.8-2.3-7.6-2.3c-4.8,0-8.2,2.9-8.2,7.1c0,1.3,0.3,2.5,1,3.5c0.8,1.4,2.2,2.3,4.5,2.9
		l2.5,0.7c2,0.6,3,1.5,3,3c0,2-1.4,3.1-4,3.1c-2.3,0-4.2-0.7-6.3-1.8l-1.7,3.6c2.3,1.3,5.2,2.1,7.8,2.1
		C194.4,212.3,198.2,209.2,198.2,204.6 M173.2,195.7c0,1-0.3,1.8-0.9,2.3c-0.6,0.6-1.5,0.8-3.5,0.8h-1.5v-6.2h1.6
		c1.1,0,2.1,0.1,2.6,0.3C172.6,193.3,173.2,194.3,173.2,195.7 M179.4,211.8c-0.8-1.4-4.3-7.4-5.5-8.9c-0.3-0.4-0.5-0.6-1-1
		c2.8-0.1,5.1-2.9,5.1-6.3c0-4-2.7-6.7-6.7-6.7h-8.5v22.9h4.5v-9.6c0.3,0,0.5,0.1,0.7,0.2c0.8,0.4,1.5,1.5,3.8,5.6
		c0.9,1.6,1.3,2.2,2.1,3.8H179.4z M153,202.5h-4.5c0.5-1.5,0.8-2.6,1.2-4.2c0.4-1.5,1-3.9,1.1-4.4l0.9,4.1
		C152.1,199.5,152.8,202,153,202.5 M160.6,211.8l-7.2-23h-5l-7.5,23h4.8l1.6-5.4h6.7l1.6,5.4H160.6z M139.6,211.8v-4h-8.7v-6.1h6.5
		V198h-6.5v-5.3h7.8l0.6-3.8h-13v22.9H139.6z M124.4,188.9h-5.4l-3,6.3c-0.5,1.1-1,2.2-1.2,2.9c-0.3-0.9-0.6-1.7-1.2-2.9l-2.9-6.3
		h-5.5l7.1,13.5v9.4h4.8v-9.4L124.4,188.9z"/>
	<path class="st2" d="M96.3,204.7c0-4-2.8-6.4-7.1-6.4c-0.9,0-2.1,0.2-3.1,0.5l0.6-7h8.6l0.5-2.6h-11l-1.1,11.9
		c1.3-0.5,2.7-0.8,4.5-0.8c3.1,0,4.6,1.7,4.6,4.7c0,4.5-3.2,6.4-6.8,6.4c-1.6,0-2.7-0.2-3.9-0.5l0.4,1.6c1.2,0.4,2.1,0.6,4.1,0.6
		C91.6,213,96.3,210.2,96.3,204.7 M70.2,188.7c-2.7,0-4.9,1.1-6.6,2.8l0.9,1.4c1.4-1.2,2.8-2,5.2-2c2.1,0,3.8,1.5,3.8,4.3
		c0,4-2.3,6.8-6.1,10.8l-4.3,4.4v1.6h14.5l0.6-2.5H66.4l2.1-1.9c4.7-4.2,8.5-8.2,8.5-12.4C77,191.3,74.5,188.7,70.2,188.7
		 M53.8,189.1h-2l-6.6,4.2l0.5,1c1.5-0.5,3.6-1.3,5-2v15.9c0,2.2-0.8,2.4-4.7,2.4v1.3h12.6v-1.3c-3.9-0.1-4.8-0.3-4.8-2.4V189.1z"/>
</g>
<g>
	<rect x="0" class="st3" width="242.8" height="173.8"/>
	<g id="Logo">
		<g>
			<path d="M85.2,60.2h-0.7c-0.3-0.5-0.7-1.1-1.1-1.9c-0.5-0.8-1.3-1.6-2.4-2.4c-1.1-0.7-2.5-1.4-4.3-2c-1.8-0.6-4-0.9-6.8-0.9
				c-6.4,0-11.3,2-14.6,5.9c-3.3,3.9-5,9.5-5,16.8c0,0.6,0,1.6,0.1,2.7c0.1,1.2,0.2,2.5,0.5,3.9c0.3,1.5,0.7,3,1.4,4.6
				c0.7,1.6,1.5,3.1,2.7,4.7c0.7,0.9,1.4,1.8,2.3,2.6c0.9,0.8,1.9,1.6,3,2.2c1.1,0.6,2.4,1.2,3.8,1.6c1.4,0.4,3,0.6,4.7,0.6
				c2.3,0,4.4-0.3,6.2-0.8c1.8-0.5,3.4-1.2,4.8-2c1.4-0.8,2.6-1.7,3.7-2.8c1.1-1,2-2,2.9-3l0.8,0.5l-0.8,7.5
				c-5.8,3.2-12.2,4.8-19.3,4.8c-3.7,0-7.2-0.6-10.5-1.7c-3.3-1.1-6.2-2.8-8.7-5c-2.5-2.2-4.4-4.9-5.9-8.2
				c-1.5-3.3-2.2-7.1-2.2-11.3c0-3.8,0.6-7.4,1.8-10.7s3-6.2,5.5-8.7c2.4-2.5,5.5-4.4,9.3-5.9c3.7-1.5,8.2-2.2,13.2-2.2
				c3.2,0,6.1,0.3,9,0.9c2.9,0.6,5.8,1.6,8.8,2.9L85.2,60.2z"/>
			<path d="M97.1,67c0-2.4,0-5-0.1-7.8c-0.1-2.8-0.3-6-0.7-9.7c0.7,0.1,1.7,0.2,2.8,0.3c1.2,0.1,2,0.2,2.6,0.2
				c0.9,0,1.8-0.1,2.7-0.2c0.9-0.1,1.8-0.2,2.8-0.3c-0.2,1.4-0.4,3.2-0.5,5.4c-0.1,2.2-0.2,4.5-0.3,7c-0.1,2.5-0.1,4.9-0.1,7.4
				c0,2.5,0,4.7,0,6.6c0,5.7,0.1,10.6,0.2,14.8c0.1,4.2,0.3,7.8,0.6,10.9c-0.9-0.1-1.8-0.1-2.7-0.3c-0.9-0.1-1.8-0.2-2.7-0.2
				c-0.9,0-1.8,0.1-2.8,0.2c-1,0.1-1.9,0.2-2.8,0.3c0.4-4.6,0.7-9.8,0.7-15.8C97.1,79.9,97.1,73.6,97.1,67z"/>
			<path d="M137.4,91.2c0,2.9,0.1,5.1,0.2,6.6c0.1,1.5,0.2,2.8,0.4,3.8c-1.1-0.1-2.2-0.2-3.3-0.3s-1.8-0.2-2.3-0.2
				c-0.7,0-1.3,0-2,0.1c-0.7,0.1-1.8,0.2-3.1,0.4c0.2-2.9,0.3-5.8,0.5-8.7c0.2-2.9,0.3-5.8,0.3-8.7l-0.1-21.2c0-1.4,0-2.8,0-4.2
				c0-1.4-0.1-2.8-0.1-4.2H124c-0.2,0-0.7,0-1.6,0c-0.9,0-2,0.1-3.2,0.1c-1.2,0-2.4,0.1-3.7,0.2c-1.3,0.1-2.4,0.2-3.4,0.3
				c0.3-1,0.4-1.9,0.4-2.8c0-0.9-0.1-1.8-0.4-2.8c1.5,0.1,3.2,0.2,4.9,0.2c1.8,0.1,3.5,0.1,5.3,0.2c1.8,0.1,3.6,0.1,5.3,0.1
				s3.3,0,4.8,0c3.2,0,6.5,0,9.9-0.1c3.4-0.1,6.9-0.2,10.5-0.4c-0.3,1.4-0.4,2.4-0.4,2.9c0,0.4,0,0.8,0.1,1.2
				c0.1,0.4,0.2,0.9,0.3,1.5c-2.3-0.3-4.7-0.4-7.3-0.5c-2.6-0.1-5.2-0.1-7.9-0.1c-0.1,1.4-0.1,2.7-0.1,4.2s0,2.8,0,4.3L137.4,91.2
				L137.4,91.2z"/>
			<path d="M184.8,84.1c0,1.6,0,3.1,0,4.4s0.1,2.7,0.1,4.1c0.1,1.4,0.1,2.8,0.2,4.2c0.1,1.5,0.1,3,0.2,4.8c-0.9-0.1-1.8-0.2-2.7-0.3
				c-0.9-0.1-1.8-0.2-2.7-0.2c-0.8,0-1.7,0.1-2.6,0.2c-1,0.1-1.8,0.2-2.5,0.3c0.1-1.5,0.1-3.1,0.2-5s0.1-3.8,0.2-5.7
				c0.1-1.9,0.1-3.7,0.1-5.5c0-1.7,0-3.2,0-4.4l-4.5-7.7c-1-1.7-2.1-3.6-3.3-5.6c-1.2-2.1-2.5-4.2-3.8-6.3s-2.6-4.2-3.9-6.3
				c-1.3-2-2.4-3.9-3.4-5.6c1.4,0.2,2.6,0.3,3.5,0.4c0.9,0.1,1.9,0.1,2.7,0.1c0.9,0,1.9,0,3-0.1c1.1-0.1,2.2-0.2,3.3-0.4
				c1,2.1,1.9,4,2.8,5.9c0.9,1.9,1.9,3.8,2.9,5.8c1,2,2.1,4.1,3.4,6.3c1.2,2.3,2.7,4.8,4.3,7.6c1.6-2.8,3-5.1,4.1-7
				c1.1-1.9,2-3.7,2.9-5.5s1.8-3.6,2.8-5.7c0.9-2,2.1-4.5,3.5-7.5c0.6,0.1,1.3,0.2,2,0.3c0.7,0.1,1.5,0.2,2.4,0.2
				c0.7,0,1.4,0,1.9-0.1c0.5-0.1,0.9-0.2,1.3-0.4c-0.3,0.5-0.8,1.4-1.6,2.6c-0.7,1.2-1.5,2.5-2.4,3.8c-0.8,1.3-1.6,2.6-2.4,3.8
				c-0.7,1.2-1.3,2-1.6,2.5c-1.7,2.7-3.4,5.5-4.9,8.3s-3.1,5.6-4.7,8.3c-0.3,0.5-0.5,0.9-0.7,1.3c-0.2,0.4-0.3,0.8-0.3,1.1
				L184.8,84.1L184.8,84.1z"/>
		</g>
		<g>
			<path d="M46.8,110.9c0-0.7,0-1.2-0.1-1.5c0.1,0,0.2,0,0.3,0c0.1,0,0.2,0,0.3,0c0.1,0,0.3,0,0.4-0.1c0,0.3-0.1,0.7-0.1,1.2
				c0,0.5-0.1,0.9-0.1,1.5c0,0.5,0,1-0.1,1.6c0,0.5,0,1.1,0,1.6c0,0.6-0.1,1.2-0.3,1.7c-0.2,0.5-0.5,0.9-0.8,1.3s-0.7,0.6-1.2,0.8
				c-0.5,0.2-1,0.3-1.7,0.3c-1.4,0-2.4-0.3-3.1-0.9c-0.6-0.6-0.9-1.6-0.9-3c0-0.4,0-0.8,0-1.2c0-0.3,0-0.7,0-1c0-0.8,0-1.5,0-2.1
				s0-1.1-0.1-1.5c0.1,0,0.2,0,0.4,0s0.3,0,0.4,0s0.2,0,0.3,0c0.1,0,0.2,0,0.3,0c0,0.2,0,0.5-0.1,0.8c0,0.3,0,0.7-0.1,1.1
				c0,0.4,0,0.9,0,1.4s0,1,0,1.5c0,0.3,0,0.6,0,1c0,0.3,0,0.7,0.1,1c0.1,0.3,0.2,0.6,0.3,0.9c0.1,0.3,0.3,0.5,0.6,0.8
				c0.2,0.2,0.5,0.4,0.9,0.5s0.8,0.2,1.3,0.2c0.5,0,0.9-0.1,1.3-0.2s0.7-0.4,0.8-0.6c0.2-0.2,0.4-0.5,0.5-0.8c0.1-0.3,0.2-0.6,0.3-1
				c0.1-0.4,0.1-0.7,0.1-1c0-0.4,0-0.6,0-0.9C46.8,112.7,46.8,111.6,46.8,110.9z"/>
			<path d="M54.8,115.4c-1.2-1.3-2.4-2.6-3.6-3.8c0,0.3,0,0.6,0,1c0,0.4,0,1,0,1.8c0,0.2,0,0.4,0,0.7c0,0.3,0,0.6,0,0.9
				c0,0.3,0,0.6,0,1c0,0.3,0,0.6,0,0.9c0,0.3,0,0.5,0,0.7c0,0.2,0,0.4,0,0.4c-0.2,0-0.3,0-0.5,0c-0.2,0-0.4,0-0.5,0
				c0-0.1,0-0.3,0.1-0.5c0-0.3,0-0.5,0.1-0.9c0-0.4,0-0.7,0.1-1.1c0-0.4,0-0.8,0.1-1.2c0-0.4,0-0.8,0-1.2s0-0.7,0-1
				c0-0.9,0-1.6,0-2.3s0-1.1,0-1.4h0.2c0.6,0.6,1.2,1.3,1.8,2c0.7,0.7,1.3,1.4,1.9,2.1c0.7,0.7,1.2,1.3,1.8,1.9s1.1,1.1,1.5,1.6
				v-1.9c0-1,0-1.9,0-2.8c0-0.9,0-1.8-0.1-2.6c0.2,0,0.4,0.1,0.5,0.1c0.1,0,0.3,0,0.5-0.1c0,0.2,0,0.5-0.1,0.9c0,0.4,0,0.8-0.1,1.3
				c0,0.5,0,0.9-0.1,1.4c0,0.5,0,0.8,0,1.1c0,0.2,0,0.5,0,0.8c0,0.3,0,0.6,0,1c0,0.4,0,0.7,0,1c0,0.4,0,0.7,0,1c0,0.3,0,0.5,0,0.8
				c0,0.2,0,0.4,0,0.5h-0.2C57.2,117.9,56,116.7,54.8,115.4z"/>
			<path d="M61.2,111.2c0-0.6-0.1-1.2-0.1-1.8c0.1,0,0.2,0,0.4,0c0.1,0,0.2,0,0.3,0c0.1,0,0.2,0,0.3,0c0.1,0,0.2,0,0.4,0
				c0,0.6-0.1,1.2-0.1,1.8c0,0.6,0,1.2,0,1.8v2.4c0,0.6,0,1.2,0,1.8c0,0.6,0.1,1.2,0.1,1.7c-0.2,0-0.5,0-0.7,0c-0.2,0-0.5,0-0.7,0
				c0-0.6,0.1-1.2,0.1-1.7c0-0.6,0-1.2,0-1.8V113C61.3,112.4,61.2,111.8,61.2,111.2z"/>
			<path d="M67.1,117c-0.3-0.8-0.7-1.6-1-2.4c-0.4-0.8-0.7-1.7-1.1-2.6c-0.4-0.9-0.7-1.7-1-2.5c0.1,0,0.3,0,0.4,0s0.2,0,0.4,0
				c0.1,0,0.2,0,0.4,0c0.1,0,0.3,0,0.4,0c0.2,0.6,0.4,1.3,0.7,1.9c0.3,0.7,0.5,1.4,0.8,2c0.3,0.7,0.6,1.4,0.8,2.1
				c0.3,0.7,0.6,1.4,0.9,2.1c0.2-0.4,0.4-0.8,0.6-1.3c0.2-0.5,0.4-0.9,0.6-1.5c0.2-0.5,0.4-1,0.6-1.6c0.2-0.5,0.4-1,0.6-1.5
				c0.2-0.5,0.4-0.9,0.5-1.4c0.2-0.4,0.3-0.8,0.4-1.1c0.2,0,0.4,0.1,0.5,0.1c0.1,0,0.3,0,0.5-0.1c-0.7,1.6-1.4,3.2-2.1,4.8
				c-0.7,1.6-1.3,3.2-1.9,4.8c-0.2,0-0.3,0-0.5,0c-0.2,0-0.3,0-0.5,0C67.7,118.4,67.4,117.8,67.1,117z"/>
			<path d="M74.4,111.2c0-0.6-0.1-1.2-0.1-1.8c0.4,0,0.8,0,1.2,0c0.4,0,0.8,0,1.2,0s0.8,0,1.2,0c0.4,0,0.8,0,1.2,0
				c0,0.1,0,0.3,0,0.4s0,0.3,0,0.4c-0.3,0-0.6,0-0.8-0.1c-0.3,0-0.5,0-0.8-0.1c-0.3,0-0.6,0-0.9-0.1c-0.3,0-0.7,0-1.2,0
				c0,0.3,0,0.6,0,0.8c0,0.3,0,0.6,0,0.9c0,0.4,0,0.7,0,1.1c0,0.4,0,0.6,0,0.8c0.4,0,0.8,0,1.1,0s0.6,0,0.9,0s0.5,0,0.7,0
				c0.2,0,0.5,0,0.7,0c0,0.1,0,0.3,0,0.4s0,0.3,0,0.4c-0.2,0-0.5-0.1-0.8-0.1c-0.3,0-0.7,0-1,0s-0.6,0-0.9,0c-0.3,0-0.5,0-0.7,0
				c0,0.1,0,0.2,0,0.3s0,0.2,0,0.4v0.5v0.8c0,0.5,0,1,0,1.3c0,0.4,0,0.6,0,0.8c0.3,0,0.6,0,1,0s0.7,0,1,0c0.3,0,0.7,0,1-0.1
				c0.3,0,0.6-0.1,0.8-0.1c0,0.1,0,0.1,0,0.2c0,0.1,0,0.2,0,0.2c0,0.2,0,0.3,0,0.4c-0.4,0-0.8,0-1.2,0c-0.4,0-0.8,0-1.3,0
				s-0.8,0-1.3,0c-0.4,0-0.8,0-1.3,0c0-0.6,0.1-1.2,0.1-1.8c0-0.6,0-1.2,0-1.8V113C74.4,112.4,74.4,111.8,74.4,111.2z"/>
			<path d="M81.4,111.2c0-0.6-0.1-1.2-0.1-1.8c0.3,0,0.5,0,0.8,0c0.3,0,0.5,0,0.8,0c0.3,0,0.5,0,0.8,0s0.5,0,0.8,0
				c0.4,0,0.7,0,1.1,0.1c0.4,0.1,0.7,0.2,0.9,0.4c0.3,0.2,0.5,0.4,0.6,0.7c0.2,0.3,0.2,0.6,0.2,1c0,0.5-0.1,0.8-0.3,1.1
				c-0.2,0.3-0.5,0.6-0.7,0.8s-0.6,0.4-0.9,0.5c-0.3,0.1-0.6,0.2-0.9,0.2c0.1,0.1,0.3,0.3,0.5,0.6c0.2,0.3,0.4,0.5,0.7,0.8
				c0.2,0.3,0.5,0.6,0.7,0.9c0.3,0.3,0.5,0.6,0.7,0.9s0.5,0.6,0.7,0.8c0.2,0.3,0.4,0.5,0.5,0.6c-0.1,0-0.3,0-0.4,0s-0.3,0-0.4,0
				s-0.3,0-0.4,0c-0.1,0-0.3,0-0.4,0c-0.1-0.2-0.4-0.5-0.7-0.9s-0.6-0.8-0.9-1.3c-0.4-0.5-0.7-0.9-1-1.3c-0.4-0.5-0.7-0.8-1-1.1
				h-0.5v1c0,0.6,0,1.2,0,1.8c0,0.6,0.1,1.2,0.1,1.7c-0.2,0-0.5,0-0.7,0c-0.2,0-0.5,0-0.7,0c0-0.6,0.1-1.2,0.1-1.7
				c0-0.6,0-1.2,0-1.8v-2.4C81.4,112.4,81.4,111.8,81.4,111.2z M83,113.9c0.2,0,0.3,0,0.5,0c0.3,0,0.6,0,0.9-0.1
				c0.3-0.1,0.6-0.2,0.8-0.4c0.3-0.2,0.5-0.4,0.7-0.6s0.3-0.6,0.3-1c0-0.4-0.1-0.6-0.2-0.9c-0.1-0.2-0.3-0.4-0.5-0.5
				c-0.2-0.1-0.5-0.2-0.7-0.3c-0.3-0.1-0.5-0.1-0.7-0.1c-0.3,0-0.6,0-0.8,0c-0.2,0-0.4,0-0.6,0.1c0,0.5,0,1-0.1,1.5c0,0.5,0,1,0,1.5
				v0.8C82.7,113.9,82.9,113.9,83,113.9z"/>
			<path d="M90,117.7c0.1,0.2,0.3,0.3,0.5,0.5c0.2,0.1,0.4,0.3,0.7,0.4c0.2,0.1,0.5,0.1,0.8,0.1s0.6-0.1,0.8-0.2
				c0.3-0.1,0.5-0.3,0.6-0.4c0.2-0.2,0.3-0.4,0.4-0.6c0.1-0.3,0.1-0.5,0.1-0.8c0-0.4-0.1-0.8-0.3-1c-0.2-0.3-0.5-0.5-0.8-0.6
				c-0.3-0.2-0.7-0.3-1-0.5c-0.4-0.1-0.7-0.3-1-0.5c-0.3-0.2-0.6-0.5-0.8-0.8c-0.2-0.3-0.3-0.7-0.3-1.3c0-0.4,0.1-0.7,0.2-1.1
				c0.1-0.3,0.4-0.6,0.6-0.8c0.3-0.2,0.6-0.4,0.9-0.5c0.4-0.1,0.8-0.2,1.3-0.2c0.5,0,0.8,0.1,1.2,0.2s0.6,0.3,0.9,0.5
				c-0.1,0.2-0.2,0.3-0.2,0.5c0,0.2-0.1,0.4-0.2,0.7h-0.2c0-0.1-0.1-0.3-0.2-0.4c-0.1-0.2-0.2-0.3-0.3-0.4c-0.1-0.1-0.3-0.2-0.5-0.3
				c-0.2-0.1-0.4-0.1-0.7-0.1c-0.3,0-0.5,0-0.7,0.1c-0.2,0.1-0.4,0.2-0.6,0.4s-0.3,0.3-0.4,0.5c-0.1,0.2-0.1,0.5-0.1,0.7
				c0,0.4,0.1,0.8,0.3,1c0.2,0.3,0.5,0.5,0.8,0.6c0.3,0.2,0.7,0.3,1,0.5c0.4,0.1,0.7,0.3,1,0.5c0.3,0.2,0.6,0.5,0.8,0.7
				c0.2,0.3,0.3,0.7,0.3,1.2c0,0.4-0.1,0.8-0.2,1.2c-0.2,0.4-0.4,0.7-0.7,1c-0.3,0.3-0.7,0.5-1.1,0.6c-0.4,0.2-0.9,0.2-1.4,0.2
				c-0.6,0-1-0.1-1.4-0.2c-0.4-0.2-0.7-0.3-0.9-0.5c0.1-0.2,0.1-0.4,0.2-0.6s0.1-0.4,0.1-0.6h0.2C89.7,117.3,89.8,117.5,90,117.7z"
				/>
			<path d="M96.9,111.2c0-0.6-0.1-1.2-0.1-1.8c0.1,0,0.2,0,0.4,0c0.1,0,0.2,0,0.3,0c0.1,0,0.2,0,0.3,0c0.1,0,0.2,0,0.4,0
				c0,0.6-0.1,1.2-0.1,1.8c0,0.6,0,1.2,0,1.8v2.4c0,0.6,0,1.2,0,1.8c0,0.6,0.1,1.2,0.1,1.7c-0.2,0-0.5,0-0.7,0c-0.2,0-0.5,0-0.7,0
				c0-0.6,0.1-1.2,0.1-1.7c0-0.6,0-1.2,0-1.8V113C96.9,112.4,96.9,111.8,96.9,111.2z"/>
			<path d="M102.7,110.2c-0.2,0-0.5,0-0.7,0s-0.5,0-0.8,0c-0.3,0-0.5,0-0.8,0.1c-0.3,0-0.5,0-0.7,0.1c0-0.2,0.1-0.3,0.1-0.5
				c0-0.1,0-0.3-0.1-0.4c0.6,0,1.2,0,1.8,0c0.6,0,1.2,0,1.8,0s1.2,0,1.8,0c0.6,0,1.2,0,1.8,0c0,0.2-0.1,0.3-0.1,0.5s0,0.3,0.1,0.4
				c-0.2,0-0.4-0.1-0.7-0.1c-0.3,0-0.5,0-0.8-0.1c-0.3,0-0.5,0-0.8,0s-0.5,0-0.7,0c0,0.9,0,1.9,0,2.9v2.4c0,0.6,0,1.2,0,1.8
				c0,0.6,0.1,1.2,0.1,1.7c-0.2,0-0.5,0-0.7,0c-0.2,0-0.5,0-0.7,0c0-0.6,0.1-1.2,0.1-1.7c0-0.6,0-1.2,0-1.8V113
				C102.8,112.1,102.8,111.1,102.7,110.2z"/>
			<path d="M110.5,114.4c-0.2-0.3-0.4-0.6-0.6-1c-0.2-0.4-0.5-0.7-0.7-1.2c-0.2-0.4-0.5-0.8-0.7-1.2c-0.2-0.4-0.4-0.7-0.6-1
				s-0.3-0.5-0.4-0.6c0.1,0,0.3,0,0.4,0c0.1,0,0.3,0,0.4,0c0.1,0,0.3,0,0.4,0c0.1,0,0.3,0,0.4,0c0.4,0.8,0.8,1.6,1.3,2.4
				c0.4,0.8,0.9,1.6,1.4,2.4c0.2-0.3,0.4-0.7,0.7-1.1c0.2-0.4,0.5-0.8,0.7-1.2s0.5-0.8,0.7-1.3c0.2-0.4,0.4-0.8,0.6-1.2
				c0.2,0,0.4,0.1,0.6,0.1c0.1,0,0.3,0,0.6-0.1c-0.5,0.7-0.8,1.3-1.2,1.8s-0.7,1-0.9,1.5c-0.3,0.5-0.5,0.8-0.7,1.2
				c-0.2,0.4-0.4,0.7-0.5,1c0,0.4,0,0.7,0,1.1c0,0.4,0,0.8,0,1.1c0,0.4,0,0.7,0,1c0,0.3,0,0.6,0.1,0.8c-0.2,0-0.5,0-0.7,0
				c-0.2,0-0.5,0-0.7,0c0.1-0.5,0.1-1.1,0.1-1.7s0-1.4,0-2.2C110.8,114.9,110.7,114.7,110.5,114.4z"/>
			<path d="M120.6,112.1c0.3-0.6,0.6-1.1,1.1-1.6c0.5-0.4,1-0.7,1.7-1c0.7-0.2,1.3-0.3,2.1-0.3c0.8,0,1.5,0.1,2.1,0.3
				c0.7,0.2,1.2,0.5,1.7,1c0.5,0.4,0.8,0.9,1.1,1.6c0.3,0.6,0.4,1.3,0.4,2.1s-0.1,1.5-0.4,2.1c-0.3,0.6-0.6,1.1-1.1,1.6
				c-0.5,0.4-1,0.7-1.7,0.9c-0.7,0.2-1.4,0.3-2.1,0.3c-0.7,0-1.5-0.1-2.1-0.3c-0.7-0.2-1.2-0.5-1.7-0.9c-0.5-0.4-0.8-0.9-1.1-1.6
				s-0.4-1.3-0.4-2.1S120.4,112.8,120.6,112.1z M129,112.2c-0.2-0.5-0.5-1-0.8-1.4c-0.4-0.4-0.7-0.6-1.2-0.8c-0.5-0.2-1-0.3-1.5-0.3
				c-0.6,0-1,0.1-1.5,0.3c-0.5,0.2-0.9,0.5-1.2,0.8c-0.4,0.4-0.6,0.8-0.8,1.4c-0.2,0.5-0.3,1.2-0.3,2s0.1,1.4,0.3,2
				c0.2,0.5,0.5,1,0.8,1.4c0.4,0.4,0.7,0.6,1.2,0.8c0.5,0.2,1,0.3,1.5,0.3c0.6,0,1.1-0.1,1.5-0.3c0.5-0.2,0.9-0.5,1.2-0.8
				c0.4-0.4,0.6-0.8,0.8-1.4c0.2-0.5,0.3-1.2,0.3-2S129.2,112.8,129,112.2z"/>
			<path d="M132.6,111.2c0-0.6,0-1.2-0.1-1.8c0.4,0,0.8,0,1.2,0c0.4,0,0.8,0,1.2,0c0.4,0,0.8,0,1.3,0c0.4,0,0.9,0,1.4,0
				c0,0.1,0,0.3,0,0.4s0,0.3,0,0.4c-0.3,0-0.6-0.1-0.9-0.1c-0.4,0-0.7,0-1.1-0.1c-0.4,0-0.7,0-1.1,0c-0.3,0-0.6,0-0.8,0
				c0,0.3,0,0.6,0,0.9c0,0.3,0,0.6,0,0.9c0,0.3,0,0.6,0,0.9c0,0.3,0,0.5,0,0.8c0.6,0,1.2,0,1.8,0c0.6,0,1.2-0.1,1.8-0.1
				c0,0.1-0.1,0.3-0.1,0.4s0,0.3,0.1,0.4c-0.2,0-0.5-0.1-0.8-0.1s-0.6,0-0.9,0s-0.7,0-1,0s-0.7,0-0.9,0v1.2c0,0.6,0,1.2,0,1.8
				c0,0.6,0.1,1.2,0.1,1.7c-0.2,0-0.5,0-0.7,0c-0.2,0-0.5,0-0.7,0c0-0.6,0.1-1.2,0.1-1.7c0-0.6,0-1.2,0-1.8V113
				C132.6,112.4,132.6,111.8,132.6,111.2z"/>
			<path d="M143.5,111.2c0-0.6,0-1.2-0.1-1.8c0.1,0,0.2,0,0.4,0c0.1,0,0.2,0,0.3,0s0.2,0,0.3,0c0.1,0,0.2,0,0.4,0
				c0,0.6-0.1,1.2-0.1,1.8c0,0.6,0,1.2,0,1.8c0,1.2,0,2.2,0,3c0,0.8,0,1.6,0,2.3c0.7,0,1.3,0,1.9,0c0.6,0,1.3-0.1,2-0.2
				c0,0.2-0.1,0.3-0.1,0.4c0,0.1,0,0.2,0.1,0.4c-0.4,0-0.8,0-1.3,0s-0.8,0-1.3,0c-0.5,0-0.9,0-1.3,0s-0.8,0-1.3,0
				c0-0.6,0.1-1.2,0.1-1.7c0-0.6,0-1.2,0-1.8V113C143.5,112.4,143.5,111.8,143.5,111.2z"/>
			<path d="M150.1,112.1c0.3-0.6,0.6-1.1,1.1-1.6c0.5-0.4,1-0.7,1.7-1c0.7-0.2,1.3-0.3,2.1-0.3s1.5,0.1,2.1,0.3
				c0.6,0.2,1.2,0.5,1.7,1c0.5,0.4,0.8,0.9,1.1,1.6c0.3,0.6,0.4,1.3,0.4,2.1s-0.1,1.5-0.4,2.1c-0.3,0.6-0.6,1.1-1.1,1.6
				s-1,0.7-1.7,0.9c-0.7,0.2-1.4,0.3-2.1,0.3s-1.5-0.1-2.1-0.3c-0.7-0.2-1.2-0.5-1.7-0.9s-0.8-0.9-1.1-1.6c-0.3-0.6-0.4-1.3-0.4-2.1
				S149.8,112.8,150.1,112.1z M158.5,112.2c-0.2-0.5-0.5-1-0.8-1.4c-0.4-0.4-0.7-0.6-1.2-0.8c-0.5-0.2-1-0.3-1.5-0.3s-1,0.1-1.5,0.3
				c-0.5,0.2-0.9,0.5-1.2,0.8c-0.4,0.4-0.6,0.8-0.8,1.4c-0.2,0.5-0.3,1.2-0.3,2s0.1,1.4,0.3,2c0.2,0.5,0.5,1,0.8,1.4
				c0.4,0.4,0.7,0.6,1.2,0.8c0.5,0.2,1,0.3,1.5,0.3s1.1-0.1,1.5-0.3c0.5-0.2,0.9-0.5,1.2-0.8c0.4-0.4,0.6-0.8,0.8-1.4
				c0.2-0.5,0.3-1.2,0.3-2S158.7,112.8,158.5,112.2z"/>
			<path d="M166.6,115.4c-1.2-1.3-2.4-2.6-3.6-3.8c0,0.3,0,0.6,0,1c0,0.4,0,1,0,1.8c0,0.2,0,0.4,0,0.7c0,0.3,0,0.6,0,0.9
				c0,0.3,0,0.6,0,1c0,0.3,0,0.6,0,0.9c0,0.3,0,0.5,0,0.7c0,0.2,0,0.4,0,0.4c-0.2,0-0.3,0-0.5,0c-0.2,0-0.4,0-0.5,0
				c0-0.1,0-0.3,0.1-0.5c0-0.3,0-0.5,0.1-0.9c0-0.4,0-0.7,0.1-1.1c0-0.4,0-0.8,0.1-1.2c0-0.4,0-0.8,0-1.2s0-0.7,0-1
				c0-0.9,0-1.6,0-2.3s0-1.1,0-1.4h0.2c0.6,0.6,1.2,1.3,1.8,2s1.3,1.4,1.9,2.1c0.7,0.7,1.2,1.3,1.8,1.9c0.6,0.6,1.1,1.1,1.5,1.6
				v-1.9c0-1,0-1.9,0-2.8c0-0.9,0-1.8-0.1-2.6c0.2,0,0.4,0.1,0.5,0.1c0.1,0,0.3,0,0.5-0.1c0,0.2,0,0.5-0.1,0.9c0,0.4,0,0.8-0.1,1.3
				c0,0.5,0,0.9-0.1,1.4c0,0.5,0,0.8,0,1.1c0,0.2,0,0.5,0,0.8c0,0.3,0,0.6,0,1c0,0.4,0,0.7,0,1c0,0.4,0,0.7,0,1c0,0.3,0,0.5,0,0.8
				c0,0.2,0,0.4,0,0.5h-0.2C168.9,117.9,167.8,116.7,166.6,115.4z"/>
			<path d="M172.9,111.2c0-0.6,0-1.2-0.1-1.8c0.4,0,0.7,0,1,0c0.4,0,0.7,0,1,0s0.7,0,1,0c0.4,0,0.7,0,1,0c0.8,0,1.5,0.1,2.1,0.3
				c0.6,0.2,1.1,0.5,1.4,0.9c0.4,0.4,0.7,0.9,0.8,1.5c0.2,0.6,0.3,1.2,0.3,1.9c0,0.9-0.2,1.7-0.5,2.3c-0.3,0.6-0.7,1.1-1.2,1.5
				c-0.5,0.4-1,0.7-1.7,0.8c-0.6,0.2-1.2,0.3-1.7,0.3c-0.3,0-0.6,0-0.9,0c-0.3,0-0.6,0-0.9,0s-0.6,0-0.9,0c-0.3,0-0.6,0-0.9,0
				c0-0.6,0.1-1.2,0.1-1.7c0-0.6,0-1.2,0-1.8V113C173,112.4,173,111.8,172.9,111.2z M174.2,118.4c0.2,0,0.5,0.1,0.8,0.1
				c0.3,0,0.7,0,1,0c0.5,0,1-0.1,1.5-0.2c0.5-0.1,1-0.4,1.4-0.7c0.4-0.3,0.7-0.8,1-1.4c0.3-0.6,0.4-1.3,0.4-2.2c0-0.8-0.1-1.5-0.3-2
				c-0.2-0.5-0.5-0.9-0.8-1.2c-0.4-0.3-0.8-0.5-1.2-0.6c-0.5-0.1-1-0.2-1.6-0.2c-0.4,0-0.8,0-1.2,0c-0.4,0-0.7,0.1-1,0.1
				c0,0.5-0.1,0.9-0.1,1.4s0,1,0,1.5v2.4C174.1,116.4,174.1,117.4,174.2,118.4z"/>
			<path d="M183.4,112.1c0.3-0.6,0.6-1.1,1.1-1.6c0.5-0.4,1-0.7,1.7-1c0.7-0.2,1.3-0.3,2.1-0.3c0.8,0,1.5,0.1,2.1,0.3
				c0.6,0.2,1.2,0.5,1.7,1c0.5,0.4,0.8,0.9,1.1,1.6c0.3,0.6,0.4,1.3,0.4,2.1s-0.1,1.5-0.4,2.1c-0.3,0.6-0.6,1.1-1.1,1.6
				s-1,0.7-1.7,0.9c-0.7,0.2-1.4,0.3-2.1,0.3c-0.7,0-1.5-0.1-2.1-0.3c-0.7-0.2-1.2-0.5-1.7-0.9c-0.5-0.4-0.8-0.9-1.1-1.6
				s-0.4-1.3-0.4-2.1S183.2,112.8,183.4,112.1z M191.9,112.2c-0.2-0.5-0.5-1-0.8-1.4c-0.4-0.4-0.7-0.6-1.2-0.8
				c-0.5-0.2-1-0.3-1.5-0.3s-1,0.1-1.5,0.3c-0.5,0.2-0.9,0.5-1.2,0.8c-0.4,0.4-0.6,0.8-0.8,1.4c-0.2,0.5-0.3,1.2-0.3,2
				s0.1,1.4,0.3,2c0.2,0.5,0.5,1,0.8,1.4c0.4,0.4,0.7,0.6,1.2,0.8c0.5,0.2,1,0.3,1.5,0.3s1.1-0.1,1.5-0.3s0.9-0.5,1.2-0.8
				c0.4-0.4,0.6-0.8,0.8-1.4c0.2-0.5,0.3-1.2,0.3-2S192.1,112.8,191.9,112.2z"/>
			<path d="M199.9,115.4c-1.2-1.3-2.4-2.6-3.6-3.8c0,0.3,0,0.6,0,1c0,0.4,0,1,0,1.8c0,0.2,0,0.4,0,0.7c0,0.3,0,0.6,0,0.9
				c0,0.3,0,0.6,0,1c0,0.3,0,0.6,0,0.9c0,0.3,0,0.5,0,0.7c0,0.2,0,0.4,0,0.4c-0.2,0-0.3,0-0.5,0c-0.2,0-0.4,0-0.5,0
				c0-0.1,0-0.3,0.1-0.5c0-0.3,0-0.5,0.1-0.9c0-0.4,0-0.7,0.1-1.1c0-0.4,0-0.8,0.1-1.2c0-0.4,0-0.8,0-1.2s0-0.7,0-1
				c0-0.9,0-1.6,0-2.3s0-1.1,0-1.4h0.2c0.6,0.6,1.2,1.3,1.8,2s1.3,1.4,1.9,2.1c0.7,0.7,1.2,1.3,1.8,1.9s1.1,1.1,1.5,1.6v-1.9
				c0-1,0-1.9,0-2.8c0-0.9,0-1.8-0.1-2.6c0.2,0,0.4,0.1,0.5,0.1c0.1,0,0.3,0,0.5-0.1c0,0.2,0,0.5-0.1,0.9c0,0.4,0,0.8-0.1,1.3
				c0,0.5,0,0.9-0.1,1.4c0,0.5,0,0.8,0,1.1c0,0.2,0,0.5,0,0.8c0,0.3,0,0.6,0,1c0,0.4,0,0.7,0,1c0,0.4,0,0.7,0,1c0,0.3,0,0.5,0,0.8
				c0,0.2,0,0.4,0,0.5h-0.2C202.3,117.9,201.1,116.7,199.9,115.4z"/>
		</g>
		<g>
			<path class="st4" d="M148.2,132.4c0.5-0.7,1-1.5,1.6-2.2c0.5-0.7,0.9-1.4,1.4-2c0.4-0.6,0.8-1.1,1-1.6c0.2,0.1,0.4,0.1,0.6,0.1
				s0.3,0,0.6-0.1c0,0.7-0.1,1.6-0.1,2.5c0,0.9,0,1.9,0,2.8v1.8c0.3,0,0.6,0,0.9,0s0.5-0.1,0.7-0.1c-0.1,0.2-0.1,0.4-0.1,0.5
				s0,0.3,0.1,0.5c-0.2,0-0.4-0.1-0.7-0.1c-0.3,0-0.6,0-0.9,0v0.7c0,0.5,0,0.9,0,1.4c0,0.5,0,0.8,0.1,1.1c-0.2,0-0.5,0-0.7,0
				c-0.3,0-0.5,0-0.7,0c0-0.3,0.1-0.6,0.1-1.1c0-0.5,0.1-0.9,0.1-1.3v-0.7c-0.3,0-0.6,0-1.1,0s-1,0-1.5,0c-0.5,0-1,0-1.5,0
				c-0.5,0-0.8,0-1.1,0v-0.3C147.2,133.9,147.7,133.2,148.2,132.4 M151.9,128.3c-0.2,0.3-0.5,0.7-0.9,1.2c-0.4,0.5-0.7,1-1.1,1.6
				c-0.4,0.5-0.7,1.1-1.1,1.6c-0.3,0.5-0.6,0.9-0.8,1.2h3.9L151.9,128.3L151.9,128.3L151.9,128.3z M138.9,137.4
				c0.3,0.1,0.6,0.2,0.9,0.2c0.6,0,1.1-0.2,1.6-0.5c0.4-0.3,0.8-0.8,1-1.3c0.3-0.5,0.5-1.1,0.6-1.8c0.1-0.7,0.2-1.3,0.2-2h0
				c-0.3,0.5-0.6,0.8-1,1.1c-0.5,0.3-1,0.4-1.7,0.4c-1,0-1.8-0.3-2.4-0.9c-0.6-0.6-0.9-1.4-0.9-2.5c0-0.5,0.1-1,0.3-1.4
				s0.4-0.8,0.7-1.1c0.3-0.3,0.7-0.5,1.2-0.7c0.5-0.2,1-0.3,1.6-0.3c0.5,0,1,0.1,1.4,0.3s0.8,0.5,1.2,0.8c0.4,0.4,0.6,0.9,0.8,1.5
				c0.2,0.6,0.3,1.4,0.3,2.2c0,0.9-0.1,1.8-0.3,2.6s-0.6,1.5-1,2.1c-0.4,0.6-0.9,1.1-1.6,1.4c-0.6,0.3-1.3,0.5-2.1,0.5
				c-0.3,0-0.6,0-0.8-0.1c-0.2-0.1-0.4-0.1-0.6-0.1c0-0.1-0.1-0.3-0.1-0.5c-0.1-0.2-0.1-0.3-0.2-0.5l0.1,0
				C138.4,137.1,138.6,137.3,138.9,137.4 M142.5,127.9c-0.4-0.5-0.9-0.7-1.6-0.7s-1.2,0.3-1.6,0.8c-0.4,0.5-0.6,1.3-0.6,2.2
				c0,1,0.2,1.6,0.6,2.1c0.4,0.4,0.9,0.6,1.5,0.6c0.4,0,0.7-0.1,1-0.3s0.6-0.4,0.7-0.7c0.2-0.3,0.4-0.6,0.5-1
				c0.1-0.4,0.2-0.8,0.2-1.2C143.2,129,142.9,128.4,142.5,127.9 M128.1,133c0.4-0.6,1-1,1.9-1.3v-0.1c-0.2,0-0.4-0.1-0.7-0.3
				c-0.2-0.1-0.4-0.3-0.6-0.5c-0.2-0.2-0.3-0.4-0.4-0.7c-0.1-0.3-0.2-0.5-0.2-0.9c0-0.4,0.1-0.7,0.2-1c0.2-0.3,0.4-0.6,0.7-0.8
				c0.3-0.3,0.6-0.5,1-0.6s0.8-0.2,1.3-0.2c0.6,0,1,0.1,1.4,0.2c0.4,0.1,0.7,0.3,1,0.5c0.3,0.2,0.5,0.5,0.6,0.8s0.2,0.6,0.2,0.9
				c0,0.5-0.2,1-0.5,1.5s-0.8,0.8-1.4,1v0.1c0.2,0,0.4,0.1,0.7,0.2c0.3,0.1,0.6,0.3,0.8,0.5c0.3,0.2,0.5,0.5,0.7,0.8
				c0.2,0.4,0.3,0.8,0.3,1.3c0,0.5-0.1,1.1-0.3,1.5c-0.2,0.5-0.5,0.8-0.8,1.1c-0.4,0.3-0.7,0.5-1.2,0.7c-0.5,0.2-0.9,0.2-1.5,0.2
				s-1-0.1-1.5-0.2c-0.5-0.1-0.8-0.3-1.2-0.6c-0.3-0.3-0.6-0.6-0.8-1c-0.2-0.4-0.3-0.9-0.3-1.4C127.6,134.2,127.7,133.6,128.1,133
				 M133.1,128.5c-0.1-0.3-0.2-0.5-0.3-0.7c-0.2-0.2-0.3-0.4-0.6-0.5c-0.2-0.1-0.5-0.2-0.8-0.2s-0.6,0.1-0.8,0.2
				c-0.2,0.1-0.4,0.3-0.6,0.5c-0.2,0.2-0.3,0.4-0.3,0.7c-0.1,0.3-0.1,0.5-0.1,0.8s0,0.5,0.1,0.8c0.1,0.3,0.2,0.5,0.3,0.7
				c0.1,0.2,0.3,0.4,0.6,0.5c0.2,0.1,0.5,0.2,0.8,0.2s0.6-0.1,0.8-0.2c0.2-0.1,0.4-0.3,0.6-0.5c0.2-0.2,0.3-0.4,0.3-0.7
				c0.1-0.3,0.1-0.5,0.1-0.8C133.1,129,133.1,128.8,133.1,128.5 M133.4,133.7c-0.1-0.3-0.3-0.6-0.5-0.9c-0.2-0.3-0.4-0.5-0.7-0.6
				c-0.3-0.1-0.6-0.2-0.9-0.2s-0.7,0.1-0.9,0.2c-0.3,0.1-0.5,0.3-0.7,0.6s-0.4,0.5-0.5,0.9c-0.1,0.4-0.2,0.7-0.2,1.1
				s0.1,0.8,0.2,1.1c0.1,0.4,0.3,0.6,0.5,0.9c0.2,0.3,0.4,0.5,0.7,0.6c0.3,0.1,0.6,0.2,0.9,0.2s0.7-0.1,0.9-0.2
				c0.3-0.1,0.5-0.3,0.7-0.6s0.4-0.5,0.5-0.9c0.1-0.4,0.2-0.7,0.2-1.1S133.5,134,133.4,133.7 M120.5,128.8c-0.1-0.2-0.3-0.4-0.5-0.5
				v-0.1c0.7-0.3,1.3-0.5,2-0.8c0.7-0.3,1.3-0.6,1.9-0.9l0.1,0.1c0,0.7-0.1,1.5-0.1,2.2c0,0.7,0,1.5,0,2.2v2.8c0,0.7,0,1.5,0,2.2
				c0,0.7,0.1,1.4,0.1,2.1c-0.1,0-0.3,0-0.4,0h-0.4h-0.4c-0.1,0-0.3,0-0.4,0c0.1-0.7,0.1-1.4,0.1-2.1c0-0.7,0-1.4,0-2.2v-6
				L120.5,128.8z M109,127.3c-0.3,0-0.6,0-0.9,0s-0.7,0-0.9,0c-0.3,0-0.6,0-0.9,0.1c-0.3,0-0.6,0.1-0.8,0.1c0.1-0.2,0.1-0.4,0.1-0.5
				c0-0.1,0-0.3-0.1-0.5c0.7,0,1.5,0,2.2,0.1c0.7,0,1.4,0,2.2,0c0.7,0,1.5,0,2.2,0s1.4,0,2.2-0.1c-0.1,0.2-0.1,0.4-0.1,0.5
				c0,0.1,0,0.3,0.1,0.5c-0.2,0-0.5-0.1-0.8-0.1c-0.3,0-0.6,0-0.9-0.1c-0.3,0-0.7,0-0.9,0c-0.3,0-0.6,0-0.9,0c0,1.1-0.1,2.3-0.1,3.5
				v2.9c0,0.7,0,1.5,0,2.2c0,0.7,0.1,1.4,0.1,2.1c-0.3,0-0.5,0-0.8,0s-0.6,0-0.8,0c0-0.7,0.1-1.4,0.1-2.1c0-0.7,0-1.4,0-2.2v-2.9
				C109.1,129.6,109.1,128.4,109,127.3 M97.6,136.4c0.2,0.2,0.3,0.4,0.6,0.5c0.2,0.2,0.5,0.3,0.8,0.4c0.3,0.1,0.6,0.2,1,0.2
				s0.7-0.1,1-0.2c0.3-0.1,0.6-0.3,0.7-0.5c0.2-0.2,0.4-0.5,0.5-0.8c0.1-0.3,0.2-0.6,0.2-0.9c0-0.5-0.1-0.9-0.4-1.2
				c-0.3-0.3-0.6-0.5-1-0.7c-0.4-0.2-0.8-0.4-1.3-0.5c-0.5-0.2-0.9-0.4-1.3-0.6c-0.4-0.3-0.7-0.6-1-1c-0.3-0.4-0.4-0.9-0.4-1.6
				c0-0.5,0.1-0.9,0.3-1.3c0.2-0.4,0.4-0.7,0.7-1c0.3-0.3,0.7-0.5,1.1-0.6c0.5-0.2,0.9-0.2,1.5-0.2c0.5,0,1,0.1,1.4,0.2
				c0.4,0.1,0.7,0.3,1.1,0.6c-0.1,0.2-0.2,0.4-0.3,0.6c-0.1,0.2-0.1,0.5-0.2,0.8h-0.2c-0.1-0.2-0.1-0.3-0.2-0.5
				c-0.1-0.2-0.2-0.4-0.4-0.5s-0.4-0.3-0.6-0.4c-0.2-0.1-0.5-0.2-0.8-0.2s-0.6,0-0.9,0.2c-0.3,0.1-0.5,0.3-0.7,0.4
				c-0.2,0.2-0.4,0.4-0.5,0.7c-0.1,0.3-0.2,0.5-0.2,0.8c0,0.5,0.1,0.9,0.4,1.2s0.6,0.5,1,0.8c0.4,0.2,0.8,0.4,1.3,0.5
				s0.9,0.4,1.3,0.6c0.4,0.2,0.7,0.5,1,0.9c0.3,0.4,0.4,0.8,0.4,1.5c0,0.5-0.1,1-0.3,1.5s-0.5,0.8-0.8,1.2s-0.8,0.6-1.3,0.8
				c-0.5,0.2-1.1,0.3-1.8,0.3c-0.7,0-1.3-0.1-1.7-0.3c-0.4-0.2-0.8-0.4-1.1-0.6c0.1-0.3,0.2-0.5,0.2-0.7c0-0.2,0.1-0.5,0.1-0.8h0.2
				C97.4,135.9,97.5,136.2,97.6,136.4 M88.5,128.6c0-0.7-0.1-1.4-0.1-2.1c0.5,0,1,0,1.5,0.1c0.5,0,1,0,1.5,0c0.5,0,1,0,1.5,0
				c0.5,0,1,0,1.5-0.1c0,0.2-0.1,0.3-0.1,0.5c0,0.2,0,0.3,0.1,0.5c-0.4,0-0.7,0-1-0.1c-0.3,0-0.6,0-0.9-0.1s-0.7,0-1.1-0.1
				c-0.4,0-0.9,0-1.4,0c0,0.4,0,0.7,0,1c0,0.3,0,0.7,0,1.1s0,0.9,0,1.3c0,0.4,0,0.7,0,0.9c0.5,0,0.9,0,1.3,0c0.4,0,0.7,0,1.1,0
				c0.3,0,0.6,0,0.9,0c0.3,0,0.5,0,0.8-0.1c0,0.2-0.1,0.4-0.1,0.5s0,0.3,0.1,0.5c-0.3,0-0.6-0.1-1-0.1c-0.4,0-0.8,0-1.2,0
				c-0.4,0-0.7,0-1.1,0s-0.6,0-0.8,0c0,0.1,0,0.2,0,0.3c0,0.1,0,0.3,0,0.5v0.6v1c0,0.6,0,1.2,0,1.6s0,0.7,0,0.9h1.2
				c0.4,0,0.8,0,1.3,0c0.4,0,0.8,0,1.2-0.1c0.4,0,0.7-0.1,0.9-0.1c0,0.1,0,0.2,0,0.3c0,0.1,0,0.2,0,0.3c0,0.2,0,0.3,0,0.4
				c-0.5,0-1,0-1.5,0h-1.5h-1.5c-0.5,0-1,0-1.5,0c0-0.7,0.1-1.4,0.1-2.1c0-0.7,0-1.4,0-2.2v-2.9C88.5,130,88.5,129.3,88.5,128.6"/>
			<g>
				<path class="st5" d="M80.9,133.4H39.4c-0.4,0-0.7-0.3-0.7-0.6c0-0.4,0.3-0.6,0.7-0.6h41.5c0.4,0,0.7,0.3,0.7,0.6
					C81.6,133.1,81.3,133.4,80.9,133.4z"/>
			</g>
			<g>
				<path class="st5" d="M203.7,133.4h-41.5c-0.4,0-0.7-0.3-0.7-0.6c0-0.4,0.3-0.6,0.7-0.6h41.5c0.4,0,0.7,0.3,0.7,0.6
					C204.4,133.1,204.1,133.4,203.7,133.4z"/>
			</g>
		</g>
		<g>
			<path class="st5" d="M203.9,42.2H39.3c-0.4,0-0.7-0.3-0.7-0.6s0.3-0.6,0.7-0.6h164.6c0.4,0,0.7,0.3,0.7,0.6
				S204.2,42.2,203.9,42.2z"/>
		</g>
	</g>
</g>
</svg>
